<svg width="32" height="32" viewBox="0 0 32 32" fill="none" xmlns="http://www.w3.org/2000/svg">
<path fill-rule="evenodd" clip-rule="evenodd" d="M23.4607 26.2693L30.5883 21.8517L21.9039 0.941162L13.2194 21.0177L23.4607 26.2693Z" fill="#66D4F1"/>
<path fill-rule="evenodd" clip-rule="evenodd" d="M21.9039 0.941162L23.4607 26.2693L13.2194 21.0177L21.9039 0.941162Z" fill="#4FC0E8"/>
<path fill-rule="evenodd" clip-rule="evenodd" d="M7.80321 11.8618L1.41174 15.4638V22.6675L7.80321 26.2694L14.1947 22.6675V15.4638L7.80321 11.8618Z" fill="#F76C82"/>
<path fill-rule="evenodd" clip-rule="evenodd" d="M1.41174 15.4636L7.80321 19.0655V26.2693L1.41174 22.6674V15.4636Z" fill="#EB5463"/>
<path fill-rule="evenodd" clip-rule="evenodd" d="M14.1947 15.4636L7.80322 19.0655V26.2693L14.1947 22.6674V15.4636Z" fill="#D94452"/>
<path d="M16 31.0587C19.3121 31.0587 21.9971 28.2871 21.9971 24.8681C21.9971 21.4491 19.3121 18.6775 16 18.6775C12.6878 18.6775 10.0028 21.4491 10.0028 24.8681C10.0028 28.2871 12.6878 31.0587 16 31.0587Z" fill="#FDCD56"/>
</svg>
