<svg width="32" height="32" viewBox="0 0 32 32" fill="none" xmlns="http://www.w3.org/2000/svg">
<g clip-path="url(#clip0_137_4597)">
<path d="M24.9958 8.83923C24.729 8.44983 24.3301 8.17004 23.8728 8.05212L16.446 7.15051C16.126 7.06799 15.79 7.06799 15.47 7.15051L8.04321 8.05212C7.58593 8.17004 7.18701 8.44983 6.92016 8.83923L2.1875 15.7462H29.7282L24.9958 8.83923Z" fill="#338DEF"/>
<path d="M2.21704 15.7463L15.2192 31.636C15.6164 32.1213 16.3586 32.1213 16.7556 31.636L29.7578 15.7463H2.21704Z" fill="#338DEF"/>
<path d="M9.23144 7.90796L8.04321 8.05225C7.58593 8.17017 7.18701 8.44995 6.92016 8.83935L2.1875 15.7463H4.09057L8.82299 8.37183C8.93701 8.19434 9.07519 8.03833 9.23144 7.90796Z" fill="#2388E2"/>
<path d="M4.12012 15.7463H2.21704L15.2192 31.636C15.6164 32.1213 16.3586 32.1213 16.7556 31.636L16.939 31.4121L4.12012 15.7463Z" fill="#2D80E2"/>
<path d="M16.6929 31.6723L20.5747 15.7463H11.3411L15.2231 31.6723C15.616 32.1074 16.2998 32.1074 16.6929 31.6723Z" fill="#2388E2"/>
<path d="M15.9597 31.9985C16.2283 31.998 16.4968 31.8894 16.6929 31.6724L16.7983 31.2402L14.4048 28.3152L15.2122 31.6274L15.2192 31.636C15.4114 31.8708 15.6843 31.991 15.9597 31.9985Z" fill="#117AC9"/>
<path d="M15.958 15.7462H20.5747L16.5071 7.16614L16.446 7.15051C16.126 7.06799 15.79 7.06799 15.47 7.15051L15.4089 7.16614L11.3411 15.7462H15.958Z" fill="#54A0FF"/>
<path d="M20.5747 15.7461H29.7282L24.9958 8.83911C24.854 8.63208 24.6738 8.45728 24.4685 8.32007L20.5747 15.7461Z" fill="#54A0FF"/>
<path d="M11.3411 15.7461H2.1875L6.92016 8.83911C7.06201 8.63208 7.24194 8.45728 7.4475 8.32007L11.3411 15.7461Z" fill="#54A0FF"/>
<path d="M2.1875 15.7463H4.09057L8.0808 9.52856L7.44726 8.32056C7.24194 8.45752 7.06201 8.63232 6.92016 8.83935L5.07959 11.5256L2.1875 15.7463Z" fill="#338DEF"/>
<path d="M28.9431 5.5979H28.2273V4.88208C28.2273 4.61938 28.0142 4.40625 27.7515 4.40625C27.4888 4.40625 27.2756 4.61938 27.2756 4.88208V5.5979H26.5598C26.2971 5.5979 26.084 5.81079 26.084 6.07373C26.084 6.33642 26.2971 6.54956 26.5598 6.54956H27.2756V7.26538C27.2756 7.52807 27.4888 7.74096 27.7515 7.74096C28.0142 7.74096 28.2273 7.52807 28.2273 7.26538V6.54956H28.9431C29.2058 6.54956 29.4187 6.33642 29.4187 6.07373C29.4187 5.81079 29.2058 5.5979 28.9431 5.5979Z" fill="#54A0FF"/>
<path d="M6.35522 25.7334H5.6394V25.0176C5.6394 24.7546 5.42627 24.5417 5.16357 24.5417C4.90088 24.5417 4.68774 24.7546 4.68774 25.0176V25.7334H3.97217C3.70923 25.7334 3.49634 25.9463 3.49634 26.209C3.49634 26.4719 3.70923 26.6848 3.97217 26.6848H4.68799V27.4006C4.68799 27.6633 4.90088 27.8765 5.16357 27.8765C5.42651 27.8765 5.6394 27.6636 5.6394 27.4006V26.6848H6.35522C6.61792 26.6848 6.83105 26.4719 6.83105 26.209C6.83105 25.9463 6.61792 25.7334 6.35522 25.7334Z" fill="#FECA57"/>
<path d="M15.958 0C15.6951 0 15.4822 0.21289 15.4822 0.47583V3.64697C15.4822 3.90966 15.6951 4.1228 15.958 4.1228C16.2207 4.1228 16.4336 3.90991 16.4336 3.64697V0.47583C16.4336 0.21289 16.2207 0 15.958 0Z" fill="#E4EAF8"/>
<path d="M21.9167 1.84734C21.7063 1.68987 21.4082 1.73284 21.2507 1.94305L19.3503 4.48162C19.1929 4.69207 19.2356 4.99016 19.446 5.14763C19.656 5.30486 19.9543 5.26214 20.1121 5.05193L22.0125 2.51336C22.1699 2.30291 22.1272 2.00481 21.9167 1.84734Z" fill="#E4EAF8"/>
<path d="M10.665 1.94305C10.5078 1.73284 10.2095 1.68987 9.99927 1.84734C9.78882 2.00481 9.7461 2.30291 9.90357 2.51336L11.804 5.05193C11.9614 5.26214 12.2595 5.3051 12.47 5.14763C12.6802 4.99016 12.7231 4.69207 12.5657 4.48162L10.665 1.94305Z" fill="#E4EAF8"/>
</g>
<defs>
<clipPath id="clip0_137_4597">
<rect width="32" height="32" fill="white"/>
</clipPath>
</defs>
</svg>
