<svg width="32" height="32" viewBox="0 0 32 32" fill="none" xmlns="http://www.w3.org/2000/svg">
<g clip-path="url(#clip0_137_4362)">
<path fill-rule="evenodd" clip-rule="evenodd" d="M4.38996 0.9375H11.6593C13.5584 0.9375 15.105 2.48406 15.105 4.38312V11.6525C15.105 13.5516 13.5584 15.0981 11.6593 15.0981H4.38996C2.4909 15.0981 0.944336 13.5516 0.944336 11.6525V4.38312C0.944336 2.48406 2.4909 0.9375 4.38996 0.9375Z" fill="#FD4755"/>
<path fill-rule="evenodd" clip-rule="evenodd" d="M20.3542 16.9019H27.6236C29.5226 16.9019 31.0692 18.4484 31.0692 20.3475V27.6169C31.0692 29.5159 29.5226 31.0625 27.6236 31.0625H20.3542C18.4551 31.0625 16.9086 29.5159 16.9086 27.6169V20.3475C16.9086 18.4484 18.4551 16.9019 20.3542 16.9019Z" fill="#FFB229"/>
<path fill-rule="evenodd" clip-rule="evenodd" d="M19.4794 3.50837C21.97 1.01769 26.0078 1.01775 28.4984 3.50837C30.989 5.999 30.989 10.0367 28.4984 12.5274C26.0078 15.018 21.97 15.0181 19.4794 12.5274C16.9888 10.0367 16.9888 5.99906 19.4794 3.50837Z" fill="#00E499"/>
<path fill-rule="evenodd" clip-rule="evenodd" d="M10.1605 18.7475L14.7793 26.7473C15.747 28.4206 14.51 30.4516 12.6433 30.4516H3.40584C1.50284 30.4516 0.309713 28.3707 1.2699 26.7473L5.88865 18.7475C6.83459 17.1114 9.2009 17.0902 10.1605 18.7475Z" fill="#60B7FF"/>
<path fill-rule="evenodd" clip-rule="evenodd" d="M4.3899 0.9375H11.6593C13.5583 0.9375 15.1049 2.48406 15.1049 4.38313V11.6525C15.1049 13.148 14.1458 14.4246 12.8108 14.8998C13.3064 14.3029 13.6049 13.5368 13.6049 12.7025V5.43313C13.6049 3.53406 12.0583 1.9875 10.1593 1.9875H2.8899C2.48628 1.9875 2.09872 2.05756 1.7384 2.18581C2.37109 1.42381 3.32503 0.9375 4.3899 0.9375Z" fill="#E4404D"/>
<path fill-rule="evenodd" clip-rule="evenodd" d="M20.3542 16.9019H27.6236C29.5226 16.9019 31.0692 18.4484 31.0692 20.3475V27.6169C31.0692 29.1123 30.11 30.3889 28.7751 30.8642C29.2707 30.2672 29.5693 29.501 29.5693 28.6669V21.3975C29.5693 19.4984 28.0227 17.9519 26.1236 17.9519H18.8543C18.4506 17.9519 18.0631 18.0219 17.7028 18.1502C18.3354 17.3882 19.2894 16.9019 20.3542 16.9019Z" fill="#E6A025"/>
<path fill-rule="evenodd" clip-rule="evenodd" d="M19.6241 3.36871C22.1241 1.01902 26.0555 1.0654 28.4985 3.50846C30.9891 5.99908 30.9891 10.0368 28.4985 12.5275C28.0033 13.0226 27.447 13.4189 26.8539 13.7171C26.9026 13.6714 26.9509 13.625 26.9985 13.5775C29.4891 11.0868 29.4891 7.04915 26.9985 4.55846C25.003 2.56296 22.0145 2.16658 19.6241 3.36871Z" fill="#00CD8A"/>
<path fill-rule="evenodd" clip-rule="evenodd" d="M10.1605 18.7475L14.7793 26.7474C15.6461 28.2462 14.7438 30.0318 13.2048 30.3879C13.687 29.6573 13.7885 28.678 13.2793 27.7974L8.66051 19.7975C8.07263 18.7823 6.95688 18.3972 5.96313 18.6271C6.95332 17.1118 9.22513 17.1321 10.1605 18.7475Z" fill="#56A5E6"/>
</g>
<defs>
<clipPath id="clip0_137_4362">
<rect width="32" height="32" fill="white"/>
</clipPath>
</defs>
</svg>
