<svg width="32" height="32" viewBox="0 0 32 32" fill="none" xmlns="http://www.w3.org/2000/svg">
<g clip-path="url(#clip0_137_4517)">
<path d="M16 9.0165L23.5028 4.50825L16 0L8.49725 4.50825L16 9.0165Z" fill="#FFEA76"/>
<path d="M23.5028 4.5083V13.7459L16 18.2542V9.01655L23.5028 4.5083Z" fill="#FFD250"/>
<path d="M8.49725 4.5083L16 9.01655V18.2542L8.49725 13.7459V4.5083Z" fill="#FFC25E"/>
<path d="M8.49726 22.7623L16 18.2541L8.49726 13.7458L0.994568 18.2541L8.49726 22.7623Z" fill="#FFAB56"/>
<path d="M16 18.2542V27.4918L8.49725 32V22.7624L16 18.2542Z" fill="#FF982A"/>
<path d="M0.994568 18.2542L8.49725 22.7624V32L0.994568 27.4918V18.2542Z" fill="#FF7E3D"/>
<path d="M23.5028 22.7623L16 18.2541L23.5028 13.7458L31.0054 18.2541L23.5028 22.7623Z" fill="#00E499"/>
<path d="M16 18.2542V27.4918L23.5028 32V22.7624L16 18.2542Z" fill="#00B594"/>
<path d="M31.0054 18.2542L23.5027 22.7624V32L31.0054 27.4918V18.2542Z" fill="#00D38E"/>
</g>
<defs>
<clipPath id="clip0_137_4517">
<rect width="32" height="32" fill="white"/>
</clipPath>
</defs>
</svg>
