<svg width="48" height="48" viewBox="0 0 48 48" fill="none" xmlns="http://www.w3.org/2000/svg">
<g opacity="0.1">
<path d="M5.64362 8.06821C7.36207 7.35228 8.18832 5.34551 7.4891 3.58598C6.78989 1.82644 4.82998 0.980429 3.11153 1.69636C1.39308 2.4123 0.566828 4.41906 1.26604 6.1786C1.96526 7.93814 3.92517 8.78415 5.64362 8.06821Z" fill="#03256C"/>
<path d="M20.5937 5.66236C21.0232 3.8145 19.9083 1.96002 18.1036 1.52028C16.2989 1.08054 14.4877 2.22205 14.0583 4.06992C13.6288 5.91778 14.7437 7.77225 16.5484 8.212C18.3531 8.65174 20.1643 7.51023 20.5937 5.66236Z" fill="#03256C"/>
<path d="M32.6675 7.29602C33.9793 5.95286 33.9793 3.77517 32.6675 2.43201C31.3557 1.08885 29.2289 1.08885 27.9171 2.43201C26.6053 3.77517 26.6053 5.95286 27.9171 7.29602C29.2289 8.63918 31.3557 8.63918 32.6675 7.29602Z" fill="#03256C"/>
<path d="M45.6242 7.29603C46.936 5.95287 46.936 3.77517 45.6242 2.43201C44.3124 1.08885 42.1855 1.08885 40.8737 2.43201C39.562 3.77517 39.562 5.95286 40.8738 7.29602C42.1855 8.63918 44.3124 8.63918 45.6242 7.29603Z" fill="#03256C"/>
<path d="M5.64362 20.826C7.36207 20.1101 8.18832 18.1033 7.4891 16.3438C6.78989 14.5843 4.82998 13.7382 3.11153 14.4542C1.39308 15.1701 0.566828 17.1769 1.26604 18.9364C1.96526 20.696 3.92517 21.542 5.64362 20.826Z" fill="#03256C"/>
<path d="M20.593 18.4197C21.0225 16.5718 19.9076 14.7173 18.1029 14.2776C16.2982 13.8379 14.487 14.9794 14.0575 16.8272C13.6281 18.6751 14.7429 20.5296 16.5476 20.9693C18.3524 21.4091 20.1635 20.2676 20.593 18.4197Z" fill="#03256C"/>
<path d="M32.6675 20.0531C33.9793 18.7099 33.9793 16.5323 32.6675 15.1891C31.3557 13.8459 29.2289 13.8459 27.9171 15.1891C26.6053 16.5322 26.6053 18.7099 27.9171 20.0531C29.2289 21.3963 31.3557 21.3963 32.6675 20.0531Z" fill="#03256C"/>
<path d="M45.6242 20.0533C46.936 18.7102 46.936 16.5325 45.6242 15.1893C44.3124 13.8462 42.1855 13.8462 40.8737 15.1893C39.562 16.5325 39.562 18.7102 40.8738 20.0533C42.1855 21.3965 44.3124 21.3965 45.6242 20.0533Z" fill="#03256C"/>
<path d="M7.69981 30.9117C7.9946 29.0363 6.74878 27.2713 4.91716 26.9694C3.08554 26.6676 1.36175 27.9432 1.06696 29.8186C0.772176 31.694 2.01802 33.459 3.84964 33.7609C5.68126 34.0627 7.40503 32.7871 7.69981 30.9117Z" fill="#03256C"/>
<path d="M19.709 32.8104C21.0208 31.4673 21.0208 29.2896 19.709 27.9464C18.3972 26.6033 16.2704 26.6033 14.9586 27.9464C13.6468 29.2896 13.6468 31.4673 14.9586 32.8104C16.2704 34.1536 18.3972 34.1536 19.709 32.8104Z" fill="#03256C"/>
<path d="M33.5799 31.153C34.0029 29.3034 32.8815 27.453 31.0751 27.0199C29.2687 26.5868 27.4614 27.7351 27.0385 29.5846C26.6155 31.4342 27.737 33.2847 29.5433 33.7178C31.3497 34.1509 33.157 33.0026 33.5799 31.153Z" fill="#03256C"/>
<path d="M46.5375 31.1523C46.9604 29.3027 45.839 27.4522 44.0326 27.0191C42.2262 26.5861 40.419 27.7343 39.996 29.5839C39.573 31.4335 40.6945 33.284 42.5009 33.717C44.3072 34.1501 46.1145 33.0019 46.5375 31.1523Z" fill="#03256C"/>
<path d="M5.64362 46.3419C7.36207 45.626 8.18832 43.6192 7.4891 41.8597C6.78989 40.1001 4.82998 39.2541 3.11153 39.97C1.39308 40.686 0.566828 42.6927 1.26604 44.4523C1.96526 46.2118 3.92517 47.0578 5.64362 46.3419Z" fill="#03256C"/>
<path d="M20.5912 43.9343C21.0206 42.0865 19.9058 40.232 18.1011 39.7923C16.2964 39.3525 14.4852 40.494 14.0557 42.3419C13.6262 44.1898 14.7411 46.0442 16.5458 46.484C18.3505 46.9237 20.1617 45.7822 20.5912 43.9343Z" fill="#03256C"/>
<path d="M32.6675 45.5678C33.9793 44.2246 33.9793 42.0469 32.6675 40.7037C31.3557 39.3606 29.2289 39.3606 27.9171 40.7037C26.6053 42.0469 26.6053 44.2246 27.9171 45.5677C29.2289 46.9109 31.3557 46.9109 32.6675 45.5678Z" fill="#03256C"/>
<path d="M45.6242 45.5678C46.936 44.2246 46.936 42.0469 45.6242 40.7037C44.3124 39.3606 42.1855 39.3606 40.8737 40.7037C39.562 42.0469 39.562 44.2246 40.8738 45.5677C42.1855 46.9109 44.3124 46.9109 45.6242 45.5678Z" fill="#03256C"/>
</g>
</svg>
