<svg width="512" height="512" viewBox="0 0 512 512" fill="none" xmlns="http://www.w3.org/2000/svg">
<g clip-path="url(#clip0_2_5)">
<path d="M440 0H72C32.2355 0 0 32.2355 0 72V440C0 479.764 32.2355 512 72 512H440C479.764 512 512 479.764 512 440V72C512 32.2355 479.764 0 440 0Z" fill="url(#paint0_linear_2_5)"/>
<path d="M346.71 277.79C338.791 267.11 328.058 258.842 315.71 253.91C300.3 263.75 283.79 273.44 266.32 282.63C291.84 284.463 304.59 295.74 304.57 316.46C304.57 327.44 300.797 335.74 293.25 341.36C285.703 346.98 274.147 349.79 258.58 349.79H210.75V308.64C192.208 316.242 173.262 322.821 154 328.35V399.59H263.61C282.483 399.59 299.15 396.463 313.61 390.21C328.07 383.957 339.31 374.767 347.33 362.64C355.37 350.513 359.387 336.147 359.38 319.54C359.373 302.933 355.15 289.017 346.71 277.79Z" fill="white"/>
<path d="M334.66 163C327.367 152.667 317.283 144.823 304.41 139.47C291.48 134.1 276.88 131.47 260.52 131.47H154V207.36C163.04 208.12 172.18 208.5 181.42 208.5C191.3 208.5 201.063 208.093 210.71 207.28V177H255.14C273.64 177 285.22 182.277 289.88 192.83C307.301 187.963 324.448 182.168 341.25 175.47C339.559 171.065 337.346 166.879 334.66 163Z" fill="white"/>
<path d="M443.92 135.19L443.69 135.42C440.22 139.16 402.58 179.74 341.02 223.42C334.687 227.92 328.103 232.433 321.27 236.96C295.874 253.877 269.36 269.052 241.91 282.38C231.843 287.3 221.457 291.967 210.75 296.38C192.221 304.124 173.275 310.827 154 316.46V218.83C172.875 220.329 191.84 220.302 210.71 218.75C238.283 216.469 265.574 211.553 292.21 204.07C307.92 199.72 322.79 194.76 336.67 189.5C339.27 188.55 341.78 187.56 344.3 186.56C401.81 163.91 440.3 137.64 443.68 135.35C443.8 135.27 443.88 135.23 443.92 135.19Z" fill="#EEEAE9"/>
<path d="M443.72 135.35C443.728 135.373 443.728 135.397 443.72 135.42C440.44 138.28 402.57 171.23 345.52 202.92C340.367 205.78 335.063 208.63 329.61 211.47C280.16 237 218.84 259.86 154 262.8V218.8C172.875 220.299 191.84 220.272 210.71 218.72C238.283 216.439 265.574 211.523 292.21 204.04C307.92 199.69 322.79 194.73 336.67 189.47C339.27 188.52 341.78 187.53 344.3 186.53C401.85 163.91 440.37 137.64 443.72 135.35Z" fill="white"/>
<path d="M474.08 112.41L422.89 124.22L445.51 134.24L449.12 158.55L474.08 112.41Z" fill="white"/>
<path d="M474.08 112.41L449.12 158.55L445.51 134.24L474.08 112.41Z" fill="url(#paint1_linear_2_5)"/>
<path d="M474.08 112.41L449.12 158.55L445.51 134.24L474.08 112.41Z" fill="#EEEAE9"/>
</g>
<defs>
<linearGradient id="paint0_linear_2_5" x1="243.97" y1="571.94" x2="260.78" y2="130.46" gradientUnits="userSpaceOnUse">
<stop stop-color="#221E53"/>
<stop offset="1" stop-color="#00ACA3"/>
</linearGradient>
<linearGradient id="paint1_linear_2_5" x1="474.166" y1="94.0866" x2="439.84" y2="154.689" gradientUnits="userSpaceOnUse">
<stop stop-color="#27C1DE"/>
<stop offset="0.99" stop-color="#5767B0"/>
</linearGradient>
<clipPath id="clip0_2_5">
<rect width="512" height="512" fill="white"/>
</clipPath>
</defs>
</svg>